<svg width="85" height="89" viewBox="0 0 85 89" fill="none" xmlns="http://www.w3.org/2000/svg">
<path d="M78.2341 50.46H1.4741C1.0941 49.5733 0.777436 48.6867 0.524102 47.8C0.270769 46.7867 0.144102 45.6467 0.144102 44.38C0.144102 42.2267 0.714102 40.6433 1.8541 39.63C3.12077 38.49 4.76744 37.92 6.7941 37.92H83.5541C83.8074 38.68 84.0608 39.5667 84.3141 40.58C84.6941 41.5933 84.8841 42.67 84.8841 43.81C84.8841 45.8367 84.3141 47.4833 83.1741 48.75C82.0341 49.89 80.3874 50.46 78.2341 50.46ZM49.7341 8.27999V87.13C48.8474 87.51 47.8974 87.8267 46.8841 88.08C45.8708 88.3333 44.6674 88.46 43.2741 88.46C40.7408 88.46 38.8408 87.89 37.5741 86.75C36.4341 85.61 35.8641 83.6467 35.8641 80.86V2.00999C36.8774 1.62999 37.8908 1.31333 38.9041 1.06C40.0441 0.806666 41.3741 0.680001 42.8941 0.680001C45.3008 0.680001 47.0108 1.25 48.0241 2.38999C49.1641 3.52999 49.7341 5.49332 49.7341 8.27999Z" fill="#DCE1E9"/>
</svg>
