<svg width="120" height="109" viewBox="0 0 120 109" fill="none" xmlns="http://www.w3.org/2000/svg">
<path d="M82.5 20.8999C88.0228 20.8999 92.5 16.4228 92.5 10.8999C92.5 5.37705 88.0228 0.899902 82.5 0.899902C76.9772 0.899902 72.5 5.37705 72.5 10.8999C72.5 16.4228 76.9772 20.8999 82.5 20.8999Z" fill="#46AF72"/>
<path d="M120 58.3999V34.8999L94.75 24.1999C89.9 22.1499 84.3 23.8999 81.5 28.3999L76.5 36.3999C73.15 42.2999 66.95 46.6999 59.45 47.9999L59.75 48.2999C63.2 51.7499 67.35 53.6499 72.05 54.1499C76.05 52.0499 79.65 49.2499 82.5 45.9499L85.5 60.9499L79.7 66.4499L75 70.8999V74.6999V108.4H85V78.3999L95.5 68.3999L104.5 108.4H115L104.1 53.3999L101 37.8999L110 41.3999V58.3999H120Z" fill="#46AF72"/>
<path d="M51.45 39.4498C52.55 40.1998 53.8 40.6498 55.05 40.8998C55.7 40.9998 56.3 41.0998 56.95 41.0998C57.6 41.0998 58.25 41.0498 58.85 40.8998C59.5 40.7998 60.1 40.5998 60.7 40.3498C61.9 39.8498 63.05 39.1498 64 38.1498C66.45 35.6998 67.35 32.2998 66.75 29.1498C66.4 27.2998 65.5 25.4498 64 23.9998C63.05 23.0498 61.9 22.2998 60.7 21.7998C60.1 21.5498 59.5 21.3498 58.85 21.2498C58.2 21.1498 57.6 21.0498 56.95 21.0498C56.35 21.0498 55.8 21.0998 55.2 21.1998C54.5 21.2998 53.8 21.4998 53.15 21.7498C52 22.2998 50.85 23.0498 49.9 23.9998C48.4 25.4498 47.5 27.2998 47.15 29.1498C46.55 32.2998 47.45 35.6998 49.9 38.1498C50.35 38.6498 50.9 39.0498 51.45 39.4498Z" fill="#46AF72"/>
<path d="M56.2 51.7999L46.2 41.7999C45.7 41.2999 45.2 40.8999 44.65 40.4999C43.55 39.7999 42.3 39.2999 41.05 39.0999C40.4 38.9499 39.8 38.8999 39.15 38.8999C36.6 38.8999 34.05 39.8999 32.1 41.8499L15.4 58.5499C13.35 60.5999 12.3 63.4499 12.5 66.2499C12.5 67.1499 12.7 68.0999 13.05 68.9999L18.4 83.7499L0.25 101.9L7.3 109L28.5 87.7999V76.6999L35 82.7499V108.4H45V78.3999L34.4 67.7999L46.2 55.9999L49.75 59.5499C56.2 65.8499 64.6 69.7499 74.9 69.7499L74.2 59.3999C66.7 59.2999 60.7 56.2999 56.2 51.7999Z" fill="#46AF72"/>
</svg>
