<svg width="120" height="90" viewBox="0 0 120 90" fill="none" xmlns="http://www.w3.org/2000/svg">
<path d="M29 57.3772L21.125 49.2931C26.9583 43.3048 33.0625 38.8135 39.4375 35.8194C45.8125 32.8253 52.6667 31.3282 60 31.3282C67.3333 31.3282 74.1875 32.8253 80.5625 35.8194C86.9375 38.8135 93.0417 43.3048 98.875 49.2931L91 57.3772C85.9167 52.1589 80.7917 48.4376 75.625 46.2134C70.4583 43.9891 65.25 42.877 60 42.877C54.75 42.877 49.5417 43.9891 44.375 46.2134C39.2083 48.4376 34.0833 52.1589 29 57.3772ZM7.875 35.6911L0 27.6069C7.75 19.4799 16.7708 12.9356 27.0625 7.97384C37.3542 3.01211 48.3333 0.53125 60 0.53125C71.6667 0.53125 82.6458 3.01211 92.9375 7.97384C103.229 12.9356 112.25 19.4799 120 27.6069L112.125 35.6911C104.792 28.5051 96.7708 22.7735 88.0625 18.4961C79.3542 14.2188 70 12.0801 60 12.0801C50 12.0801 40.6458 14.2188 31.9375 18.4961C23.2292 22.7735 15.2083 28.5051 7.875 35.6911ZM60 89.2007L78.5 70.081C76.0833 67.6001 73.3125 65.6539 70.1875 64.2424C67.0625 62.8309 63.6667 62.1251 60 62.1251C56.3333 62.1251 52.9375 62.8309 49.8125 64.2424C46.6875 65.6539 43.9167 67.6001 41.5 70.081L60 89.2007Z" fill="#46AF72"/>
</svg>
